<svg b-5bvfnf2466="" id="EW" data-name="EWLogo" role="img" title="Earnings Whispers" aria-label="Earnings Whispers Logo" xmlns="http://www.w3.org/2000/svg" viewBox="0 0 1755 515" width="170" height="50" class="ewlogo-svg d-sm-inline-block d-none"><path b-5bvfnf2466="" fill="currentColor" d="M204.4,229.9H80.7V41.4H198.5V78.7H118V116h74.6v37.3H118v39.3h86.4Z"></path><path b-5bvfnf2466="" fill="currentColor" d="M443.2,169.1c0,6.9-10.3,12.7-30.8,17.5a5.64,5.64,0,0,0-4.4,4.8,63.74,63.74,0,0,0-.2,7.6,51,51,0,0,0,2,12.3c1.3,5.1,2,8.7,2,10.8H328.3c0-2.6.1-6.4.2-11.2.2-5.4.2-9.2.2-11.5,0-16.9-4.8-29-14.5-36.2q-16.05-12-22.5-26.7c-4.1-9.3-6.1-21.4-6.1-36.4q0-23.55,24-41.9,22.2-17.1,46.5-17.1h4.8q40.35,0,46.6,17.1c1.1,4.5,2.4,9.4,4,14.8a27.14,27.14,0,0,1,2.4,3.5,29.46,29.46,0,0,1,.1,4.2c0,5.4,1.4,9.4,4.1,11.7,1.3,1.1,4.6,2.7,10,4.6a31,31,0,0,1,12.1,7.1,3.1,3.1,0,0,1,.9,1.8c0,1.2-2.2,3.3-6.5,6.1s-6.5,5.5-6.5,7.9a5,5,0,0,0,2.2,4.3,28.77,28.77,0,0,1,2.7,2.2,102.87,102.87,0,0,0-9.2,8.3c-2,2.3-4.1,5.1-6.6,8.5a68.9,68.9,0,0,0,21.1,3.3c.7,0,1.1.5,1.1,1.6a13.39,13.39,0,0,1-1.7,6.2c-1.1,2.2-1.7,3.5-1.7,4.1,0,1.2,1.2,2.7,3.5,4.5S443.2,166.6,443.2,169.1Zm45.9-82.5-38,36-2.6-2.3,33.6-39.9Zm0,91.6-7,6.2-33.5-40,2.6-2.2Zm3.6-40.3-38.6-2.4v-4l38.6-4.6Z"></path><path b-5bvfnf2466="" fill="currentColor" d="M195.7,345.1c.2,14.7-4.1,28.7-12.7,42-8.9,11.8-17.7,23.6-26.6,35.5-2.9,4.2-5.6,10.1-8.3,17.6-3.7,9.9-6,16-7.1,18.3-5.9,12.5-16.5,18.8-31.6,19-15.7.3-23.6-10.7-23.6-32.8a103.08,103.08,0,0,1,2.3-21.4h7.4c-1.1,10-1.6,16.3-1.6,18.9,0,18.7,5.4,28.1,16.1,28.1,9.7-.1,17.1-3.9,22.1-11.4,2-2.8,5.3-10.8,10.1-23.8a92.13,92.13,0,0,1,8.4-18l24.3-33c8.5-12.7,12.7-25.4,12.6-38.2-.2-17.9-3.9-31.2-11.2-40.1q-12.45-15-40.2-15.3c-17.9-.1-30.7,7.1-38.4,21.4-5.4,9.9-8.1,22.7-8.1,38.2a104.92,104.92,0,0,0,1.1,15.8H82.6a109.27,109.27,0,0,1-1.2-17.1c0-16.9,3.1-30.8,9.4-41.8q13.65-23.85,44.9-23.8,32.25,0,46.6,16.5C191.1,309.7,195.5,324.8,195.7,345.1ZM177.2,348c0,7.8-3.2,18.4-9.5,31.7l-7.2-2.9q8.7-17.7,8.7-29.1c0-10.5-2.7-19.4-8.2-26.7-6.2-8.3-14.6-12.5-25.3-12.5a25,25,0,0,0-19.2,8.4,30,30,0,0,0-8,20.5c25.6,15,38.5,29.9,38.7,44.9a37.62,37.62,0,0,1-5.1,18.8l-10.3,16.6c-1.3,2.9-3.5,7.2-6.5,12.9-2.8,4.6-6.7,6.8-11.5,6.8-6.8,0-10.1-4.2-10.1-12.5,0-2.2.8-5.1,2.3-8.7s2.3-6.4,2.3-8.5a21.56,21.56,0,0,0-2.1-7.8,22.4,22.4,0,0,1-2-9.2c.3-7.5,4.1-11.1,11.2-10.8,6.7.3,9.8,4.6,9.4,12.9-.2,4.6-3.1,8.5-8.6,11.8a24.76,24.76,0,0,1-2.6,11.7,22.5,22.5,0,0,0-2.4,7.6c-.4,4.2.6,6.2,3,6.2,2.8,0,5-1.6,6.3-4.9a82.41,82.41,0,0,1,4.3-10.7l9.8-15.1a31,31,0,0,0,4.6-17.3c-.3-11.4-10.3-23.2-29.8-35.5,2.5,9.5,8.6,18.2,18.3,26l-4.5,5.4q-23-15-23-39.7c0-11.1,3.3-20.1,10-27.1s15.1-10.5,25.3-10.5c14,0,24.6,4.7,31.9,14C174,323.4,177.2,334.3,177.2,348Z"></path><line b-5bvfnf2466="" fill="none" stroke="currentColor" stroke-width="3" x1="263.4" y1="7.5" x2="263.4" y2="507.5"></line><line b-5bvfnf2466="" fill="none" stroke="currentColor" stroke-width="3" x1="8.4" y1="257.5" x2="508.4" y2="257.5"></line><path b-5bvfnf2466="" fill="currentColor" d="M508.4,285.4,429.8,480,389.2,379.3,348.6,480,270,285.4h40.3l38.3,94.9,40.7-100.8L430,380.2l38.3-94.9,40.1.1Z"></path><path b-5bvfnf2466="" fill="currentColor" d="M647.4,248.8H534.9V77.3H642v33.9H568.8v33.9h67.9V179H568.8v35.7h78.6v34.1Z"></path><path b-5bvfnf2466="" fill="currentColor" d="M808.3,248.8H778.1l-8-17.1h-56l-8,17.1H676l66.1-141.4Zm-50.7-44.3-15.5-32.7-15.3,32.7Z"></path><path b-5bvfnf2466="" fill="currentColor" d="M939.8,248.8H910.7l-20.8-51.4H864v51.4H836.8V111.6h60a43.08,43.08,0,0,1,42.9,42.9,41.12,41.12,0,0,1-6.2,22.2,42.92,42.92,0,0,1-16.6,15.6Zm-27.2-94.3a15.86,15.86,0,0,0-15.7-15.7H864v31.4h32.8A15.81,15.81,0,0,0,912.6,154.5Z"></path><path b-5bvfnf2466="" fill="currentColor" d="M1108,253.1l-100-86.4v82.1H980.9V107.3l100,86.4V111.6h27.2l-.1,141.5Z"></path><path b-5bvfnf2466="" fill="currentColor" d="M1183,248.8h-28.6V111.6H1183Z"></path><path b-5bvfnf2466="" fill="currentColor" d="M1356.5,253.1l-100-86.4v82.1h-27.1V107.3l100,86.4V111.6h27.1Z"></path><path b-5bvfnf2466="" fill="currentColor" d="M1536.5,180.2q0,29.25-20.7,50t-50,20.7q-29.25,0-50-20.7t-20.7-50q0-29.25,20.7-50t50-20.7q29.25,0,50,20.7l-19.1,19.1a42.2,42.2,0,0,0-30.9-12.7,43.6,43.6,0,1,0,0,87.2c15.5,0,27.6-6.4,36.2-19.3h-24.8V177.4h59.3Z"></path><path b-5bvfnf2466="" fill="currentColor" d="M1678.5,207.7a40,40,0,0,1-22.3,35.9,67.16,67.16,0,0,1-61.1,0c-11.3-5.6-18.4-14.5-21.2-26.6l26.1-9.3a12.1,12.1,0,0,0,7.1,11.6,40.48,40.48,0,0,0,37.1,0,12.19,12.19,0,0,0,7.2-11.6c0-4.8-2.4-8.1-7.1-10l-42.8-17.4q-20.7-8.1-20.7-31.2c0-15.2,6.9-26.2,20.7-32.8a53.91,53.91,0,0,1,24.3-5.7,54.74,54.74,0,0,1,24.5,5.7,34.82,34.82,0,0,1,18.4,20.5l-25.5,9.1a8.77,8.77,0,0,0-4.6-5.2,27.92,27.92,0,0,0-12.7-3,27.27,27.27,0,0,0-12.2,2.8,9.1,9.1,0,0,0-5.6,8.7c0,3.2,1.7,5.5,5.2,6.8l43.2,17.3a34.73,34.73,0,0,1,16.3,13.5A40,40,0,0,1,1678.5,207.7Z"></path><path b-5bvfnf2466="" fill="currentColor" d="M826.5,260.8,755,437.7l-36.9-91.5-36.9,91.5L609.7,260.8h36.6L681.1,347l37-91.6,37,91.6,34.8-86.2Z"></path><path b-5bvfnf2466="" fill="currentColor" d="M957.9,432.3H930.8V376.5H882.2v55.8H855.1V295.1h27.1v54.3h48.6V295.1h27.1Z"></path><path b-5bvfnf2466="" fill="currentColor" d="M1032.9,432.3h-28.6V295.1h28.6Z"></path><path b-5bvfnf2466="" fill="currentColor" d="M1181.3,391.2a40,40,0,0,1-22.3,35.9,67.16,67.16,0,0,1-61.1,0c-11.3-5.6-18.4-14.5-21.2-26.6l26.1-9.3a12.1,12.1,0,0,0,7.1,11.6,40.69,40.69,0,0,0,37.2,0,12,12,0,0,0,7.1-11.6c0-4.8-2.4-8.1-7.1-10l-42.8-17.4q-20.7-8.25-20.7-31.2c0-15.2,6.9-26.2,20.7-32.8a53.91,53.91,0,0,1,24.3-5.7,54.74,54.74,0,0,1,24.5,5.7,34.82,34.82,0,0,1,18.4,20.5l-25.5,9.1a8.62,8.62,0,0,0-4.7-5.2,27.92,27.92,0,0,0-12.7-3,27.27,27.27,0,0,0-12.2,2.8c-3.7,1.9-5.6,4.7-5.6,8.7,0,3.2,1.7,5.5,5.2,6.8l43.2,17.3a34.73,34.73,0,0,1,16.3,13.5A39,39,0,0,1,1181.3,391.2Z"></path><path b-5bvfnf2466="" fill="currentColor" d="M1326.1,337.9a43.06,43.06,0,0,1-42.8,42.9h-32.9v51.5h-27.1V295.1h60a43,43,0,0,1,42.8,42.8Zm-27.1,0a15.92,15.92,0,0,0-15.7-15.7h-32.9v31.4h32.9a15.79,15.79,0,0,0,15.7-15.7Z"></path><path b-5bvfnf2466="" fill="currentColor" d="M1456.3,432.3h-90V295.1H1452v27.2h-58.6v27.1h54.3v27.1h-54.3v28.6h62.9Z"></path><path b-5bvfnf2466="" fill="currentColor" d="M1603.8,432.3h-29.1l-20.8-51.4h-25.8v51.4H1501V295.1h60a42.93,42.93,0,0,1,42.9,42.8,43.55,43.55,0,0,1-6.2,22.3,42.92,42.92,0,0,1-16.6,15.6Zm-27.2-94.4a15.92,15.92,0,0,0-15.7-15.7H1528v31.4h32.9A15.66,15.66,0,0,0,1576.6,337.9Z"></path><path b-5bvfnf2466="" fill="currentColor" d="M1746.8,391.2a40,40,0,0,1-22.3,35.9,67.16,67.16,0,0,1-61.1,0c-11.3-5.6-18.4-14.5-21.2-26.6l26.1-9.3a12.1,12.1,0,0,0,7.1,11.6,40.69,40.69,0,0,0,37.2,0,12,12,0,0,0,7.1-11.6c0-4.8-2.4-8.1-7.1-10l-42.8-17.4q-20.7-8.25-20.7-31.2c0-15.2,6.9-26.2,20.7-32.8a53.91,53.91,0,0,1,24.3-5.7,54.74,54.74,0,0,1,24.5,5.7,34.82,34.82,0,0,1,18.4,20.5l-25.5,9.1a8.62,8.62,0,0,0-4.7-5.2,27.92,27.92,0,0,0-12.7-3,27.27,27.27,0,0,0-12.2,2.8c-3.7,1.9-5.6,4.7-5.6,8.7,0,3.2,1.7,5.5,5.2,6.8l43.2,17.3a34.73,34.73,0,0,1,16.3,13.5A37.29,37.29,0,0,1,1746.8,391.2Z"></path></svg>